<?xml version="1.0" encoding="utf-8"?>
<!-- Generator: Adobe Illustrator 24.0.2, SVG Export Plug-In . SVG Version: 6.00 Build 0)  -->
<svg version="1.1" id="Layer_1" xmlns="http://www.w3.org/2000/svg" xmlns:xlink="http://www.w3.org/1999/xlink" x="0px" y="0px"
	 viewBox="0 0 18 18" style="enable-background:new 0 0 18 18;" xml:space="preserve">
<style type="text/css">
	.st0{clip-path:url(#SVGID_2_);}
	.st1{fill:#FB642D;}
</style>
<g>
	<g>
		<defs>
			<rect id="SVGID_1_" x="2.7" y="0" width="12.7" height="18"/>
		</defs>
		<clipPath id="SVGID_2_">
			<use xlink:href="#SVGID_1_"  style="overflow:visible;"/>
		</clipPath>
		<g class="st0">
			<path class="st1" d="M9,0C5.5,0,2.7,2.8,2.7,6.3c0,1.2,0.3,2.3,0.9,3.3l5,8.1C8.7,17.9,8.9,18,9.1,18c0,0,0,0,0,0
				c0.2,0,0.4-0.1,0.4-0.3l4.9-8.2c0.6-1,0.9-2.1,0.9-3.2C15.3,2.8,12.5,0,9,0z M13.5,9l-4.5,7.4L4.5,9.1C4,8.3,3.7,7.3,3.7,6.3
				C3.7,3.4,6.1,1,9,1s5.3,2.4,5.3,5.3C14.3,7.3,14,8.2,13.5,9z"/>
			<path class="st1" d="M9,3.2c-1.7,0-3.2,1.4-3.2,3.2c0,1.7,1.4,3.2,3.2,3.2c1.8,0,3.2-1.4,3.2-3.2C12.2,4.6,10.7,3.2,9,3.2z
				 M9,8.4c-1.2,0-2.1-1-2.1-2.1c0-1.2,1-2.1,2.1-2.1s2.1,1,2.1,2.1C11.1,7.5,10.2,8.4,9,8.4z"/>
		</g>
	</g>
</g>
</svg>
